<svg width="55" height="47" viewBox="0 0 55 47" fill="none" xmlns="http://www.w3.org/2000/svg">
<g id="Group">
<path id="Vector" d="M27.6982 4.21286C34.9736 4.21286 35.8351 4.24028 38.6964 4.34994C41.3555 4.45047 42.7914 4.83429 43.7487 5.15413C45.0144 5.57451 45.9292 6.08627 46.8758 6.8996C47.8331 7.72206 48.4181 8.49884 48.9074 9.58632C49.2797 10.4088 49.7264 11.6516 49.8434 13.9271C49.971 16.3945 50.003 17.1348 50.003 23.3764C50.003 29.6271 49.971 30.3674 49.8434 32.8256C49.7264 35.1103 49.2797 36.344 48.9074 37.1664C48.4181 38.2539 47.8225 39.0398 46.8758 39.8532C45.9185 40.6756 45.0144 41.1782 43.7487 41.5986C42.7914 41.9185 41.3448 42.3023 38.6964 42.4028C35.8245 42.5125 34.9629 42.5399 27.6982 42.5399C20.4228 42.5399 19.5613 42.5125 16.7001 42.4028C14.0409 42.3023 12.605 41.9185 11.6477 41.5986C10.382 41.1782 9.46723 40.6665 8.52058 39.8532C7.5633 39.0307 6.97829 38.2539 6.48901 37.1664C6.11673 36.344 5.67 35.1011 5.553 32.8256C5.42536 30.3582 5.39345 29.618 5.39345 23.3764C5.39345 17.1256 5.42536 16.3854 5.553 13.9271C5.67 11.6425 6.11673 10.4088 6.48901 9.58632C6.97829 8.49884 7.57394 7.71292 8.52058 6.8996C9.47787 6.07713 10.382 5.57451 11.6477 5.15413C12.605 4.83429 14.0516 4.45047 16.7001 4.34994C19.5613 4.24028 20.4228 4.21286 27.6982 4.21286ZM27.6982 0C20.3058 0 19.3805 0.0274156 16.4767 0.137078C13.5836 0.24674 11.5945 0.648836 9.87142 1.22456C8.07385 1.82771 6.55283 2.62276 5.04245 3.92957C3.52143 5.22724 2.59605 6.53405 1.89404 8.06933C1.22394 9.55891 0.755936 11.2587 0.628298 13.7444C0.50066 16.2483 0.46875 17.0434 0.46875 23.3947C0.46875 29.7459 0.50066 30.541 0.628298 33.0358C0.755936 35.5215 1.22394 37.2304 1.89404 38.7108C2.59605 40.2553 3.52143 41.5621 5.04245 42.8597C6.55283 44.1574 8.07385 44.9616 9.86078 45.5556C11.5945 46.1313 13.5729 46.5334 16.4661 46.6431C19.3698 46.7528 20.2952 46.7802 27.6876 46.7802C35.0799 46.7802 36.0053 46.7528 38.9091 46.6431C41.8022 46.5334 43.7912 46.1313 45.5144 45.5556C47.3013 44.9616 48.8223 44.1574 50.3327 42.8597C51.8431 41.5621 52.7791 40.2553 53.4705 38.72C54.1406 37.2304 54.6086 35.5306 54.7362 33.0449C54.8638 30.5501 54.8957 29.7551 54.8957 23.4038C54.8957 17.0525 54.8638 16.2575 54.7362 13.7626C54.6086 11.277 54.1406 9.56805 53.4705 8.0876C52.8004 6.53405 51.875 5.22724 50.354 3.92957C48.8436 2.6319 47.3226 1.82771 45.5356 1.2337C43.8019 0.657975 41.8235 0.255879 38.9304 0.146217C36.0159 0.0274156 35.0906 0 27.6982 0Z" fill="white"/>
<path id="Vector_2" d="M27.6979 11.377C19.9758 11.377 13.7109 16.7596 13.7109 23.3942C13.7109 30.0288 19.9758 35.4114 27.6979 35.4114C35.4199 35.4114 41.6848 30.0288 41.6848 23.3942C41.6848 16.7596 35.4199 11.377 27.6979 11.377ZM27.6979 31.1894C22.6881 31.1894 18.625 27.6984 18.625 23.3942C18.625 19.0899 22.6881 15.599 27.6979 15.599C32.7076 15.599 36.7707 19.0899 36.7707 23.3942C36.7707 27.6984 32.7076 31.1894 27.6979 31.1894Z" fill="white"/>
<path id="Vector_3" d="M45.5771 10.9338C45.5771 12.5049 44.0927 13.771 42.2749 13.771C40.4463 13.771 38.9727 12.4957 38.9727 10.9338C38.9727 9.36277 40.457 8.09668 42.2749 8.09668C44.0927 8.09668 45.5771 9.37201 45.5771 10.9338Z" fill="white"/>
</g>
</svg>
