<svg width="56" height="47" viewBox="0 0 56 47" fill="none" xmlns="http://www.w3.org/2000/svg">
<g id="Group">
<path id="Vector" d="M51.1012 0H4.72137C2.49964 0 0.703125 1.50756 0.703125 3.37146V43.3996C0.703125 45.2635 2.49964 46.7802 4.72137 46.7802H51.1012C53.323 46.7802 55.1301 45.2635 55.1301 43.4087V3.37146C55.1301 1.50756 53.323 0 51.1012 0ZM16.8505 39.8636H8.7715V17.5334H16.8505V39.8636ZM12.811 14.4909C10.2172 14.4909 8.12306 12.6909 8.12306 10.4707C8.12306 8.25049 10.2172 6.45055 12.811 6.45055C15.3942 6.45055 17.4883 8.25049 17.4883 10.4707C17.4883 12.6818 15.3942 14.4909 12.811 14.4909ZM47.083 39.8636H39.0146V29.0092C39.0146 26.4235 38.9615 23.0886 34.8157 23.0886C30.6167 23.0886 29.9789 25.9118 29.9789 28.8265V39.8636H21.9212V17.5334H29.66V20.5851H29.7663C30.8399 18.8308 33.4763 16.9761 37.3988 16.9761C45.5735 16.9761 47.083 21.5993 47.083 27.6113V39.8636Z" fill="white"/>
</g>
</svg>
