<svg width="55" height="47" viewBox="0 0 55 47" fill="none" xmlns="http://www.w3.org/2000/svg">
<path id="Vector" d="M17.3566 46.7802C37.89 46.7802 49.1241 28.7806 49.1241 13.1762C49.1241 12.6701 49.1134 12.1529 49.0922 11.6469C51.2775 9.97507 53.1635 7.90433 54.6614 5.53192C52.6261 6.48981 50.4651 7.1154 48.2524 7.38732C50.5823 5.91001 52.3268 3.58924 53.1625 0.855204C50.9707 2.22927 48.5737 3.19855 46.0742 3.72151C44.3902 1.82866 42.1635 0.575372 39.7386 0.155409C37.3136 -0.264555 34.8254 0.172199 32.6587 1.39814C30.4919 2.62409 28.7673 4.57095 27.7514 6.93771C26.7355 9.30447 26.485 11.9593 27.0386 14.4918C22.6005 14.2562 18.2586 13.0366 14.2946 10.9122C10.3306 8.78769 6.83295 5.80573 4.02832 2.1596C2.60286 4.75935 2.16666 7.8357 2.80839 10.7634C3.45011 13.6911 5.12161 16.2505 7.48316 17.9215C5.71025 17.8619 3.97618 17.357 2.42421 16.4484V16.5946C2.42262 19.3228 3.31426 21.9674 4.94755 24.0789C6.58084 26.1904 8.85498 27.6384 11.3834 28.1767C9.74108 28.6521 8.01739 28.7213 6.34572 28.3791C7.05919 30.7254 8.44735 32.7776 10.3165 34.2492C12.1856 35.7208 14.4424 36.5383 16.7719 36.5879C12.817 39.874 7.93165 41.6565 2.90257 41.648C2.01071 41.6466 1.11972 41.5888 0.234375 41.4749C5.34338 44.942 11.2865 46.7835 17.3566 46.7802Z" fill="white"/>
</svg>
